<svg xmlns="http://www.w3.org/2000/svg" width="70.163" height="70.163" viewBox="0 0 70.163 70.163">
  <g id="Nearby" transform="translate(0.001 0.002)">
    <ellipse id="Ellipse_25" data-name="Ellipse 25" cx="32.888" cy="19.733" rx="32.888" ry="19.733" transform="translate(2.193 28.503)" fill="#d1e7ff"/>
    <ellipse id="Ellipse_26" data-name="Ellipse 26" cx="21.925" cy="9.866" rx="21.925" ry="9.866" transform="translate(13.155 38.369)" fill="#d1e7ff"/>
    <path id="Path_78000" data-name="Path 78000" d="M10.121,46c-.482-2.456,0-7.082,8.507-10.524a2.193,2.193,0,0,1,1.644,4.056c-4.034,1.633-6.216,3.738-5.843,5.624.57,2.971,7.235,7.356,19.689,7.356s19.13-4.385,19.733-7.323c.373-1.907-1.82-4.012-5.854-5.657a2.193,2.193,0,1,1,1.644-4.056c8.847,3.585,8.9,8.573,8.518,10.546C55.3,60.506,12.961,60.55,10.121,46Z" transform="translate(0.962 3.395)" fill="#4468e2"/>
    <path id="Path_78001" data-name="Path 78001" d="M35.08,67.5C.219,67.5-12.366,39.851,14.449,27.792a2.193,2.193,0,0,1,1.8,3.99C8.77,35.126,4.385,40.279,4.385,45.574c0,9.5,14.054,17.54,30.7,17.54s30.7-8.036,30.7-17.54c0-5.295-4.385-10.447-11.862-13.791a2.193,2.193,0,0,1,1.8-3.99C82.647,39.906,69.733,67.5,35.08,67.5Z" transform="translate(0 2.662)" fill="#4468e2"/>
    <path id="Path_78002" data-name="Path 78002" d="M37.348,45.792h-8.77V33.733L22,31.54V20.578A6.578,6.578,0,0,1,28.578,14h8.77a6.578,6.578,0,0,1,6.578,6.578V31.54l-6.578,2.193Z" transform="translate(2.118 1.348)" fill="#d1e7ff"/>
    <path id="Path_78004" data-name="Path 78004" d="M6.578,0A6.578,6.578,0,1,1,0,6.578,6.578,6.578,0,0,1,6.578,0Z" transform="translate(28.503 2.193)" fill="#d1e7ff"/>
    <path id="Path_78003" data-name="Path 78003" d="M40.434,13.66a8.77,8.77,0,1,0-14.558,0A8.77,8.77,0,0,0,20,21.925V32.888a2.193,2.193,0,0,0,1.5,2.083l5.076,1.688v10.48a2.193,2.193,0,0,0,2.193,2.193h8.77a2.193,2.193,0,0,0,2.193-2.193V36.659l5.076-1.688a2.193,2.193,0,0,0,1.5-2.083V21.925a8.77,8.77,0,0,0-5.876-8.266ZM33.155,4.385A4.385,4.385,0,1,1,28.77,8.77,4.385,4.385,0,0,1,33.155,4.385Zm8.77,26.924L36.85,33a2.193,2.193,0,0,0-1.5,2.083v9.866H30.963V35.081A2.193,2.193,0,0,0,29.461,33l-5.076-1.688V21.925A4.385,4.385,0,0,1,28.77,17.54h8.77a4.385,4.385,0,0,1,4.385,4.385Z" transform="translate(1.925)" fill="#4468e2"/>
  </g>
</svg>
