<svg xmlns="http://www.w3.org/2000/svg" width="72.004" height="72.004" viewBox="0 0 72.004 72.004">
  <g id="Covid_Safe" data-name="Covid Safe" transform="translate(-3.998 -3.998)">
    <path id="Path_77993" data-name="Path 77993" d="M65.53,44a6,6,0,1,0,0-8H60.6a20.89,20.89,0,0,0-3.21-7.73l3.49-3.49a6,6,0,1,0-5.66-5.66l-3.48,3.49A21.08,21.08,0,0,0,44,19.4V14.47a6,6,0,1,0-8,0V19.4a21,21,0,0,0-7.73,3.21l-3.49-3.49a6,6,0,1,0-5.66,5.66l3.49,3.48A21.08,21.08,0,0,0,19.4,36H14.47a6,6,0,1,0,0,8H19.4a20.89,20.89,0,0,0,3.21,7.73l-3.49,3.49a6,6,0,1,0,5.66,5.66l3.49-3.49A20.89,20.89,0,0,0,36,60.6v4.93a6,6,0,1,0,8,0V60.6a20.94,20.94,0,0,0,3.21-.9A13.469,13.469,0,0,0,47,62,14,14,0,1,0,61,48a12.821,12.821,0,0,0-1.65.11A20.771,20.771,0,0,0,60.6,44ZM61,51A11,11,0,1,1,50,62,11,11,0,0,1,61,51ZM58,41l-.17,1.31a17.74,17.74,0,0,1-2.38,6.84l-.43.21-2.29-2.29-2.12,2.12L52.39,51a14.43,14.43,0,0,0-1.48,1.34l-1.72-1.71-2.12,2.12,2,2c-.22.37-.43.75-.62,1.14a17.63,17.63,0,0,1-6.13,2L41,58v9.06l.67.45a3,3,0,1,1-3.34,0l.67-.45V58l-1.31-.17a17.88,17.88,0,0,1-7.25-2.61l2.49-2.49-2.12-2.12-9.24,9.23.16.79a3,3,0,1,1-2.36-2.36l.79.16,9.23-9.24-2.12-2.12-2.49,2.49a17.88,17.88,0,0,1-2.61-7.25L22,41H12.94l-.45.67a3,3,0,1,1,0-3.34l.45.67H22l.17-1.31a17.88,17.88,0,0,1,2.61-7.25l2.49,2.49,2.12-2.12-9.23-9.24-.79.16a3,3,0,1,1,2.36-2.36l-.16.79,9.24,9.23,2.12-2.12-2.49-2.49a17.88,17.88,0,0,1,7.25-2.61L39,22V12.94l-.67-.45a3,3,0,1,1,3.34,0l-.67.45V22l1.31.17a17.88,17.88,0,0,1,7.25,2.61l-2.49,2.49,2.12,2.12,9.24-9.23-.16-.79a3,3,0,1,1,2.36,2.36l-.79-.16-9.23,9.24,2.12,2.12,2.49-2.49a17.83,17.83,0,0,1,2.61,7.25L58,39h9.06l.45-.67a3,3,0,1,1,0,3.34L67.06,41Z" fill="#4468e2"/>
    <path id="Path_77994" data-name="Path 77994" d="M40,34a6,6,0,1,0,6,6A6,6,0,0,0,40,34Zm0,9a3,3,0,1,1,3-3A3,3,0,0,1,40,43Z" fill="#4468e2"/>
    <path id="Path_77995" data-name="Path 77995" d="M58.69,69.2l2.31.87,2.31-.87a7.1,7.1,0,0,0,4.61-6.66V56l-1.16.2a5.41,5.41,0,0,1-4.68-1.5L61,53.59l-1.11,1.1a6,6,0,0,1-4.73,1.74l-1.08-.09v6.2a7.1,7.1,0,0,0,4.61,6.66ZM56.08,58.44a8,8,0,0,0,4.92-2,7.48,7.48,0,0,0,4.92,1.84v4.3a5.1,5.1,0,0,1-3.32,4.79l-1.6.6-1.6-.6a5.1,5.1,0,0,1-3.32-4.79Z" fill="#4468e2"/>
    <path id="Path_77996" data-name="Path 77996" d="M64.35,60.7l-1.6-1.19-2.25,3L59.42,61.4l-1.44,1.39,2.72,2.8Z" fill="#4468e2"/>
  </g>
</svg>
